<svg id="Layer_1" data-name="Layer 1" xmlns="http://www.w3.org/2000/svg" xmlns:xlink="http://www.w3.org/1999/xlink" viewBox="0 0 212.16 212.15"><defs><style>.cls-1{fill:url(#radial-gradient);}.cls-2{fill:#fff;}</style><radialGradient id="radial-gradient" cx="415.11" cy="543.74" r="285.74" gradientUnits="userSpaceOnUse"><stop offset="0" stop-color="#3b5998"/><stop offset="0.3" stop-color="#3b5998"/><stop offset="1" stop-color="#5f83cf"/></radialGradient></defs><title>facebook</title><path class="cls-1" d="M519.58,452.45A43.57,43.57,0,0,1,476,496H351a43.58,43.58,0,0,1-43.58-43.58v-125A43.58,43.58,0,0,1,351,283.88H476a43.57,43.57,0,0,1,43.57,43.58Z" transform="translate(-307.42 -283.88)"/><path class="cls-2" d="M470.54,342.2h19.57V311.44H460.78s-18.44-.46-30.2,14.82c0,0-8,7.55-8.13,29.65h0V379h-29v32.66h29V496h33.44V411.65h28.76l4-32.66H455.89V355.91h0C456,353.34,457.11,342,470.54,342.2Z" transform="translate(-307.42 -283.88)"/></svg>