<svg id="Layer_1" data-name="Layer 1" xmlns="http://www.w3.org/2000/svg" xmlns:xlink="http://www.w3.org/1999/xlink" viewBox="0 0 212.16 212.16"><defs><style>.cls-1{fill:url(#radial-gradient);}.cls-2{fill:#fff;}</style><radialGradient id="radial-gradient" cx="315.58" cy="469.99" r="281.14" gradientUnits="userSpaceOnUse"><stop offset="0.1" stop-color="#ffd879"/><stop offset="0.15" stop-color="#fccb76"/><stop offset="0.26" stop-color="#f5aa6c"/><stop offset="0.4" stop-color="#e9755e"/><stop offset="0.45" stop-color="#e45f58"/><stop offset="0.68" stop-color="#d22a9c"/><stop offset="1" stop-color="#6968df"/></radialGradient></defs><title>instagram</title><path class="cls-1" d="M465.59,410A43.58,43.58,0,0,1,422,453.56H297A43.58,43.58,0,0,1,253.43,410V285A43.58,43.58,0,0,1,297,241.4H422A43.59,43.59,0,0,1,465.59,285Z" transform="translate(-253.43 -241.4)"/><path class="cls-2" d="M390.21,267.48H328.81a49.3,49.3,0,0,0-49.3,49.3v61.4a49.3,49.3,0,0,0,49.3,49.29h61.41a49.29,49.29,0,0,0,49.3-49.29v-61.4A49.3,49.3,0,0,0,390.21,267.48Zm33.94,104.81a39.83,39.83,0,0,1-39.83,39.83H334.7a39.83,39.83,0,0,1-39.84-39.83V322.67a39.84,39.84,0,0,1,39.84-39.83h49.62a39.84,39.84,0,0,1,39.83,39.83Z" transform="translate(-253.43 -241.4)"/><path class="cls-2" d="M361.65,305.62a42.14,42.14,0,1,0,42.14,42.14A42.14,42.14,0,0,0,361.65,305.62Zm0,67.5A25.36,25.36,0,1,1,387,347.76,25.36,25.36,0,0,1,361.65,373.11Z" transform="translate(-253.43 -241.4)"/><circle class="cls-2" cx="147.45" cy="63.56" r="10.72"/></svg>