<svg id="Layer_1" data-name="Layer 1" xmlns="http://www.w3.org/2000/svg" viewBox="0 0 212.16 212.16"><defs><style>.cls-1{fill:#1da1f2;}.cls-2{fill:#fff;}</style></defs><title>twitter</title><path class="cls-1" d="M535.6,687.8A43.59,43.59,0,0,1,492,731.38H367a43.59,43.59,0,0,1-43.59-43.58v-125A43.59,43.59,0,0,1,367,519.22H492A43.59,43.59,0,0,1,535.6,562.8Z" transform="translate(-323.44 -519.22)"/><path class="cls-2" d="M404.25,686.77c55.76,0,86.25-46.2,86.25-86.26,0-1.31,0-2.62-.09-3.91a61.49,61.49,0,0,0,15.12-15.7,60.74,60.74,0,0,1-17.4,4.77,30.5,30.5,0,0,0,13.33-16.77,61,61,0,0,1-19.25,7.37A30.32,30.32,0,0,0,429.78,597a31,31,0,0,0,.78,6.92,86.13,86.13,0,0,1-62.49-31.68,30.33,30.33,0,0,0,9.39,40.46,30.08,30.08,0,0,1-13.73-3.8c0,.14,0,.26,0,.39A30.32,30.32,0,0,0,388,639a30.38,30.38,0,0,1-8,1.07,30,30,0,0,1-5.7-.56,30.35,30.35,0,0,0,28.31,21.07,60.79,60.79,0,0,1-37.65,13,61.46,61.46,0,0,1-7.23-.42,85.73,85.73,0,0,0,46.47,13.63" transform="translate(-323.44 -519.22)"/></svg>